<mxfile host="app.diagrams.net" agent="Mozilla/5.0 (Windows NT 10.0; Win64; x64) AppleWebKit/537.36 (KHTML, like Gecko) Chrome/128.0.0.0 Safari/537.36 Edg/128.0.0.0" version="24.7.10">
  <diagram name="Page-1" id="-A9so1JUpeZLMdXnA8Qs">
    <mxGraphModel dx="2564" dy="2087" grid="1" gridSize="10" guides="1" tooltips="1" connect="1" arrows="1" fold="1" page="1" pageScale="1" pageWidth="827" pageHeight="1169" math="0" shadow="0">
      <root>
        <mxCell id="0" />
        <mxCell id="1" parent="0" />
        <mxCell id="mTE5CUhkL9pDwrX9tNGK-28" value="" style="html=1;shadow=0;dashed=0;align=center;verticalAlign=middle;shape=mxgraph.arrows2.bendArrow;dy=15;dx=38;notch=0;arrowHead=55;rounded=1;flipH=0;flipV=1;" vertex="1" parent="1">
          <mxGeometry x="670" y="220" width="100" height="145" as="geometry" />
        </mxCell>
        <mxCell id="mTE5CUhkL9pDwrX9tNGK-26" value="" style="html=1;shadow=0;dashed=0;align=center;verticalAlign=middle;shape=mxgraph.arrows2.bendArrow;dy=15;dx=38;notch=0;arrowHead=55;rounded=1;flipH=0;flipV=1;" vertex="1" parent="1">
          <mxGeometry x="670" y="170" width="100" height="100" as="geometry" />
        </mxCell>
        <mxCell id="mTE5CUhkL9pDwrX9tNGK-4" value="&lt;font style=&quot;font-size: 36px;&quot;&gt;Admiral CI/CD Process&lt;/font&gt;" style="text;html=1;align=center;verticalAlign=middle;resizable=0;points=[];autosize=1;strokeColor=none;fillColor=none;" vertex="1" parent="1">
          <mxGeometry x="470" y="-70" width="390" height="60" as="geometry" />
        </mxCell>
        <mxCell id="mTE5CUhkL9pDwrX9tNGK-5" value="" style="html=1;shadow=0;dashed=0;align=center;verticalAlign=middle;shape=mxgraph.arrows2.bendArrow;dy=15;dx=38;notch=0;arrowHead=55;rounded=1;rotation=90;" vertex="1" parent="1">
          <mxGeometry x="145" y="145" width="110" height="110" as="geometry" />
        </mxCell>
        <mxCell id="mTE5CUhkL9pDwrX9tNGK-7" value="Path to Live" style="html=1;shadow=0;dashed=0;align=center;verticalAlign=middle;shape=mxgraph.arrows2.arrow;dy=0.6;dx=40;notch=0;movable=1;resizable=1;rotatable=1;deletable=1;editable=1;locked=0;connectable=1;" vertex="1" parent="1">
          <mxGeometry x="200" y="110" width="160" height="70" as="geometry" />
        </mxCell>
        <mxCell id="mTE5CUhkL9pDwrX9tNGK-1" value="Build" style="ellipse;whiteSpace=wrap;html=1;" vertex="1" parent="1">
          <mxGeometry x="90" y="100" width="120" height="80" as="geometry" />
        </mxCell>
        <mxCell id="mTE5CUhkL9pDwrX9tNGK-9" value="Jobs&lt;div&gt;- Build Application&lt;/div&gt;&lt;div&gt;- Run Unit Testing&lt;/div&gt;&lt;div&gt;- Static code security scanning&lt;/div&gt;&lt;div&gt;- Publish to Artifactory (both application code and deployment code)&lt;/div&gt;&lt;div&gt;&lt;br&gt;&lt;/div&gt;" style="whiteSpace=wrap;html=1;rounded=1;arcSize=50;align=center;verticalAlign=middle;strokeWidth=1;autosize=1;spacing=4;treeFolding=1;treeMoving=1;newEdgeStyle={&quot;edgeStyle&quot;:&quot;entityRelationEdgeStyle&quot;,&quot;startArrow&quot;:&quot;none&quot;,&quot;endArrow&quot;:&quot;none&quot;,&quot;segment&quot;:10,&quot;curved&quot;:1,&quot;sourcePerimeterSpacing&quot;:0,&quot;targetPerimeterSpacing&quot;:0};" vertex="1" parent="1">
          <mxGeometry x="-340" y="220" width="400" height="100" as="geometry" />
        </mxCell>
        <mxCell id="mTE5CUhkL9pDwrX9tNGK-10" value="" style="edgeStyle=entityRelationEdgeStyle;startArrow=none;endArrow=none;segment=10;curved=1;sourcePerimeterSpacing=0;targetPerimeterSpacing=0;rounded=0;exitX=0.01;exitY=0.56;exitDx=0;exitDy=0;exitPerimeter=0;" edge="1" target="mTE5CUhkL9pDwrX9tNGK-9" parent="1" source="mTE5CUhkL9pDwrX9tNGK-1">
          <mxGeometry relative="1" as="geometry">
            <mxPoint x="30" y="120" as="sourcePoint" />
          </mxGeometry>
        </mxCell>
        <mxCell id="mTE5CUhkL9pDwrX9tNGK-11" value="&lt;div style=&quot;text-align: start;&quot;&gt;&lt;span style=&quot;background-color: initial;&quot;&gt;&amp;nbsp; &amp;nbsp; &lt;b&gt;&quot;BDTD&quot; (Build, Deploy, Test, Destroy)&lt;/b&gt;&lt;br&gt;&lt;/span&gt;&lt;/div&gt;&lt;div style=&quot;text-align: start;&quot;&gt;&lt;span style=&quot;background-color: initial;&quot;&gt;- Deploy to ephemeral environment&lt;/span&gt;&lt;/div&gt;&lt;div style=&quot;text-align: start;&quot;&gt;&lt;span style=&quot;background-color: initial;&quot;&gt;- Run integration testing against deployment&lt;/span&gt;&lt;/div&gt;&lt;div style=&quot;text-align: start;&quot;&gt;&lt;span style=&quot;background-color: initial;&quot;&gt;- Destroy after successful Deploy and Test&lt;/span&gt;&lt;/div&gt;" style="ellipse;whiteSpace=wrap;html=1;" vertex="1" parent="1">
          <mxGeometry x="150" y="250" width="300" height="130" as="geometry" />
        </mxCell>
        <mxCell id="mTE5CUhkL9pDwrX9tNGK-12" value="Feature branch before merging to main" style="text;html=1;align=center;verticalAlign=middle;whiteSpace=wrap;rounded=0;" vertex="1" parent="1">
          <mxGeometry x="255" y="210" width="130" height="30" as="geometry" />
        </mxCell>
        <mxCell id="mTE5CUhkL9pDwrX9tNGK-13" value="Main branch post PR completion" style="text;html=1;align=center;verticalAlign=middle;whiteSpace=wrap;rounded=0;" vertex="1" parent="1">
          <mxGeometry x="190" y="80" width="130" height="30" as="geometry" />
        </mxCell>
        <mxCell id="mTE5CUhkL9pDwrX9tNGK-16" value="" style="group" vertex="1" connectable="0" parent="1">
          <mxGeometry x="360" y="105" width="260" height="80" as="geometry" />
        </mxCell>
        <mxCell id="mTE5CUhkL9pDwrX9tNGK-15" value="Path to Live" style="html=1;shadow=0;dashed=0;align=center;verticalAlign=middle;shape=mxgraph.arrows2.arrow;dy=0.6;dx=40;notch=0;movable=1;resizable=1;rotatable=1;deletable=1;editable=1;locked=0;connectable=1;" vertex="1" parent="mTE5CUhkL9pDwrX9tNGK-16">
          <mxGeometry x="100" y="5" width="160" height="70" as="geometry" />
        </mxCell>
        <mxCell id="mTE5CUhkL9pDwrX9tNGK-14" value="Deploy to CI&lt;div&gt;Run integration tests&lt;/div&gt;" style="ellipse;whiteSpace=wrap;html=1;" vertex="1" parent="mTE5CUhkL9pDwrX9tNGK-16">
          <mxGeometry width="130" height="80" as="geometry" />
        </mxCell>
        <mxCell id="mTE5CUhkL9pDwrX9tNGK-17" value="" style="group" vertex="1" connectable="0" parent="1">
          <mxGeometry x="620" y="100" width="260" height="80" as="geometry" />
        </mxCell>
        <mxCell id="mTE5CUhkL9pDwrX9tNGK-18" value="Path to Live" style="html=1;shadow=0;dashed=0;align=center;verticalAlign=middle;shape=mxgraph.arrows2.arrow;dy=0.6;dx=40;notch=0;movable=1;resizable=1;rotatable=1;deletable=1;editable=1;locked=0;connectable=1;" vertex="1" parent="mTE5CUhkL9pDwrX9tNGK-17">
          <mxGeometry x="100" y="5" width="160" height="70" as="geometry" />
        </mxCell>
        <mxCell id="mTE5CUhkL9pDwrX9tNGK-19" value="Deploy to Test&lt;div&gt;Run integration tests&lt;/div&gt;" style="ellipse;whiteSpace=wrap;html=1;" vertex="1" parent="mTE5CUhkL9pDwrX9tNGK-17">
          <mxGeometry width="130" height="80" as="geometry" />
        </mxCell>
        <mxCell id="mTE5CUhkL9pDwrX9tNGK-20" value="" style="group" vertex="1" connectable="0" parent="1">
          <mxGeometry x="880" y="100" width="260" height="80" as="geometry" />
        </mxCell>
        <mxCell id="mTE5CUhkL9pDwrX9tNGK-21" value="Path to Live" style="html=1;shadow=0;dashed=0;align=center;verticalAlign=middle;shape=mxgraph.arrows2.arrow;dy=0.6;dx=40;notch=0;movable=1;resizable=1;rotatable=1;deletable=1;editable=1;locked=0;connectable=1;" vertex="1" parent="mTE5CUhkL9pDwrX9tNGK-20">
          <mxGeometry x="100" y="5" width="160" height="70" as="geometry" />
        </mxCell>
        <mxCell id="mTE5CUhkL9pDwrX9tNGK-22" value="Deploy to PreProd&lt;div&gt;Run integration tests&lt;/div&gt;" style="ellipse;whiteSpace=wrap;html=1;" vertex="1" parent="mTE5CUhkL9pDwrX9tNGK-20">
          <mxGeometry width="130" height="80" as="geometry" />
        </mxCell>
        <mxCell id="mTE5CUhkL9pDwrX9tNGK-25" value="Deploy to Prod&lt;div&gt;Run integration tests (should be a subset of tests to confirm functionality, no data changing tests)&lt;/div&gt;" style="ellipse;whiteSpace=wrap;html=1;" vertex="1" parent="1">
          <mxGeometry x="1140" y="80" width="220" height="130" as="geometry" />
        </mxCell>
        <mxCell id="mTE5CUhkL9pDwrX9tNGK-29" value="Deploy to E2E&lt;div&gt;Run integration tests&lt;/div&gt;" style="ellipse;whiteSpace=wrap;html=1;" vertex="1" parent="1">
          <mxGeometry x="770" y="200" width="130" height="80" as="geometry" />
        </mxCell>
        <mxCell id="mTE5CUhkL9pDwrX9tNGK-30" value="Deploy to Training&lt;div&gt;Run integration tests&lt;/div&gt;" style="ellipse;whiteSpace=wrap;html=1;" vertex="1" parent="1">
          <mxGeometry x="770" y="300" width="130" height="80" as="geometry" />
        </mxCell>
      </root>
    </mxGraphModel>
  </diagram>
</mxfile>
